<svg width="45" height="38" viewBox="0 0 45 38" fill="none" xmlns="http://www.w3.org/2000/svg">
<path fill-rule="evenodd" clip-rule="evenodd" d="M15.215 4.83129C9.34671 2.47756 5.30259 8.01384 8.39823 12.705C3.33353 12.7853 -1.35035 17.5336 0.358508 22.6466C1.72477 26.7336 7.65875 29.0258 11.625 24.6571C11.2201 24.1666 10.8483 23.6309 10.5592 23.1684C7.92964 18.9667 15.6104 16.2884 15.8823 22.6536C16.3033 30.3058 4.26399 32.5771 0.759629 26.7162C-0.282495 30.5562 5.16275 36.5562 8.66261 37.2379C14.1078 38.2989 18.2027 36.3962 22.0984 32.7023C25.9958 36.3962 30.0897 38.2989 35.536 37.2379C39.0362 36.5562 44.481 30.5562 43.4379 26.7162C39.9336 32.577 27.895 30.3058 28.3152 22.6536C28.5872 16.2884 36.2689 18.9666 33.6379 23.1684C33.35 23.631 32.9777 24.1666 32.5722 24.6571C36.5385 29.0258 42.4723 26.7336 43.8386 22.6466C45.5482 17.5336 40.8636 12.7853 35.8004 12.705C38.8957 8.01384 34.8512 2.47756 28.9823 4.83129C27.1016 -1.61043 17.0974 -1.61043 15.215 4.83129H15.215Z" fill="#03A96A"/>
</svg>
