<svg width="934" height="776" viewBox="0 0 934 776" fill="none" xmlns="http://www.w3.org/2000/svg">
<path fill-rule="evenodd" clip-rule="evenodd" d="M467 776C339.561 648.182 212.121 520.363 84.6812 392.545C84.6812 392.545 -86.057 222.07 57.3447 78.2424C200.746 -65.5852 345.862 26.0981 385.854 61.6249C425.846 97.1519 496.118 216.912 425.275 322.347C365.902 410.712 267.2 419.383 212.918 366.241C134.57 289.534 221.498 202.88 272.161 250.147C193.479 281.369 238.795 371.729 312.164 343.837C351.705 328.804 378.929 279.59 370.993 241.288C358.135 190.433 303.375 189.294 303.375 189.294C363.595 171.075 344.466 115.214 365.734 83.7978C335.597 101.636 279.353 79.3497 253.413 141.444C242.789 106.915 214.881 76.1054 166.637 74.7554C89.232 85.3247 40.257 158.218 76.1041 193.438C109.235 220.978 140.636 162.158 107.659 148.225C124.467 125.655 159.503 151.443 128.738 208.714C104.861 253.162 79.8976 322.249 181.819 408.584C251.118 467.286 361.633 486.09 439.471 362.446C449.661 402.632 401.617 509.801 320.667 505.173C328.619 557.25 399.513 570.741 434.223 516.415C446.317 551.888 370.418 573.529 420.473 620.734C440.054 636.208 459.632 652.147 467 658.167C474.368 652.147 493.946 636.207 513.527 620.734C563.583 573.529 487.684 551.888 499.777 516.415C534.488 570.741 605.381 557.25 613.333 505.173C532.382 509.801 484.34 402.632 494.529 362.446C572.367 486.09 682.882 467.286 752.181 408.584C854.103 322.249 829.139 253.162 805.262 208.714C774.497 151.443 809.534 125.655 826.341 148.225C793.364 162.158 824.766 220.978 857.896 193.438C893.743 158.218 844.769 85.3249 767.363 74.7554C719.119 76.1054 691.212 106.915 680.587 141.444C654.648 79.3497 598.403 101.636 568.267 83.7978C589.535 115.214 570.405 171.075 630.626 189.294C630.626 189.294 575.866 190.433 563.008 241.288C555.072 279.59 582.296 328.804 621.837 343.837C695.206 371.729 740.522 281.369 661.84 250.147C712.502 202.88 799.43 289.534 721.082 366.241C666.801 419.383 568.099 410.712 508.725 322.347C437.882 216.912 508.154 97.1517 548.147 61.6249C588.139 26.0979 733.254 -65.5854 876.655 78.2424C1020.06 222.07 849.319 392.545 849.319 392.545C721.879 520.363 594.44 648.182 467 776H467Z" fill="#B3D7BF" fill-opacity="0.2"/>
</svg>
