<svg width="53" height="39" viewBox="0 0 53 39" fill="none" xmlns="http://www.w3.org/2000/svg">
<path fill-rule="evenodd" clip-rule="evenodd" d="M40.4514 16.5979C39.3714 16.6031 38.3316 16.7563 37.3349 17.0192C37.5257 16.1895 37.6252 15.3236 37.6183 14.4298C37.6126 13.2445 37.383 12.1133 36.9968 11.0558C35.9594 8.18787 33.7056 5.84354 31.0522 4.45393C30.9708 4.41045 30.8906 4.36197 30.8058 4.3161C26.9404 2.32137 26.2658 0 26.2658 0C26.2658 0 26.2622 0.0100965 26.2616 0.0129194C26.2601 0.00759937 26.2567 0 26.2567 0C26.2567 0 25.6105 2.32929 21.7689 4.37489C21.6864 4.4181 21.6083 4.46685 21.5272 4.51278C18.889 5.93512 16.6662 8.3104 15.6652 11.1836C15.2863 12.2512 15.0747 13.3851 15.0827 14.5725C15.0896 15.4639 15.1996 16.327 15.4005 17.1571C14.4002 16.9043 13.3564 16.764 12.2784 16.7741C5.79903 16.8124 0.515281 21.8131 0 28.1545C1.21236 27.7485 2.5062 27.5236 3.85618 27.5134C8.52003 27.4853 12.5998 30.0393 14.7394 33.8344L15.2087 34.7539C16.3542 36.6846 18.3253 38.0586 20.637 38.3908C21.0064 38.4468 21.3834 38.4799 21.7678 38.4774C23.5603 38.4673 25.199 37.826 26.4897 36.7766C27.793 37.811 29.4359 38.429 31.231 38.4186C31.6159 38.4162 31.9901 38.3754 32.3609 38.319C34.6664 37.959 36.6228 36.5569 37.7439 34.6133L38.2017 33.6889C40.2936 29.8655 44.3395 27.2631 49.0046 27.2353C50.3531 27.2249 51.6503 27.4341 52.8688 27.8252C52.2755 21.4938 46.9298 16.5572 40.4515 16.598L40.4514 16.5979Z" fill="#03A96A"/>
</svg>
